<svg viewBox="-588.437 -801.989 224.913 99.5" width="224.913" height="99.5" xmlns="http://www.w3.org/2000/svg">
<g transform="matrix(1, 0, 0, 1, -976.423889, -1250.98938)">
    <path d="M488.6 548.5C459.9 548.5 445.4 526.6 442.2 521.1C441.8 520.5 442.1 519.7 442.7 519.3L447.3 516.9C447.9 516.6 448.6 516.8 449 517.4C451.8 522.1 464.3 540.7 488.6 540.7C513 540.7 525.7 522.1 528.5 517.4C528.8 516.8 529.6 516.6 530.2 516.9L534.8 519.3C535.4 519.6 535.7 520.4 535.3 521.1C532.1 526.6 517.4 548.5 488.6 548.5Z" fill="#FFD400"></path>
    <path d="M562.1 464.4L557.6 461.2C557.1 460.8 557 460.1 557.4 459.6C559.7 456.8 567.5 449 581.6 449C595.6 449 603.3 456.9 605.7 459.7C606.1 460.2 606 461 605.5 461.3L600.9 464.4C600.4 464.7 599.8 464.6 599.4 464.2C597.6 462.1 592 456.7 581.6 456.7C571.2 456.7 565.5 462.1 563.7 464.2C563.2 464.7 562.6 464.8 562.1 464.4Z" fill="#FFD400"></path>
    <path d="M401.5 510C408.4 510 414.2 506.3 414.2 499.2C414.2 491.4 407.2 489.4 401.9 487.5C398.5 486.2 395.9 485 395.9 482.3C395.9 480.2 397.7 478.6 400.7 478.6C403.6 478.6 405.4 479.8 405.8 482.2C405.9 483 406.3 483.4 407.1 483.4H411.9C412.7 483.4 413.2 482.9 413.1 482.1C412.5 474.8 406.8 471.5 400.7 471.5C394.5 471.5 388.7 475.2 388.7 482.3C388.7 490.2 395.2 492.3 400.5 494.2C404 495.4 407 496.6 407 499.2C407 501.3 405.3 502.9 401.5 502.9C397.9 502.9 395.8 501.6 395.4 499.1C395.3 498.3 394.9 497.9 394.1 497.9H389.2C388.4 497.9 387.9 498.3 388 499.2C388.6 506.6 394.6 510 401.5 510ZM488 473.4V508C488 508.8 488.4 509.3 489.3 509.3H494.1C494.9 509.3 495.4 508.8 495.4 508V473.4C495.4 472.6 495 472.1 494.1 472.1H489.3C488.5 472.2 488 472.6 488 473.4ZM524.3 472.2H516.6H501.7C500.9 472.2 500.4 472.7 500.4 473.5V478C500.4 478.8 500.8 479.3 501.7 479.3H509.4V508C509.4 508.8 509.8 509.3 510.7 509.3H515.5C516.3 509.3 516.8 508.8 516.8 508V479.2H524.5C525.3 479.2 525.8 478.7 525.8 477.9V473.4C525.6 472.6 525.1 472.2 524.3 472.2ZM531.2 473.4V508C531.2 508.8 531.6 509.3 532.5 509.3H537.3C538.1 509.3 538.6 508.8 538.6 508V473.4C538.6 472.6 538.2 472.1 537.3 472.1H532.5C531.7 472.2 531.2 472.6 531.2 473.4ZM564 510C572.3 510 579.4 504.8 581.6 497.3C581.8 496.5 581.4 496 580.5 496H575.4C574.7 496 574.3 496.3 574 497C572.3 500.6 568.5 502.9 564.1 502.9C556.8 502.9 552.1 497.9 552.1 490.7C552.1 483.6 556.9 478.5 564.1 478.5C568.6 478.5 572.4 480.8 574 484.4C574.3 485 574.7 485.4 575.4 485.4H580.5C581.4 485.4 581.8 484.8 581.6 484C579.3 476.6 572.3 471.5 564 471.5C552.8 471.5 544.7 479.9 544.7 490.8C544.7 501.6 552.8 510 564 510ZM600.2 510C607.1 510 612.9 506.3 612.9 499.2C612.9 491.4 605.9 489.4 600.6 487.5C597.2 486.2 594.6 485 594.6 482.3C594.6 480.2 596.4 478.6 599.4 478.6C602.3 478.6 604.1 479.8 604.5 482.2C604.6 483 605 483.4 605.8 483.4H610.6C611.4 483.4 611.9 482.9 611.8 482.1C611.2 474.8 605.5 471.5 599.4 471.5C593.2 471.5 587.4 475.2 587.4 482.3C587.4 490.2 593.9 492.3 599.2 494.2C602.7 495.4 605.7 496.6 605.7 499.2C605.7 501.3 604 502.9 600.2 502.9C596.6 502.9 594.5 501.6 594.1 499.1C594 498.3 593.6 497.9 592.8 497.9H588C587.2 497.9 586.7 498.3 586.8 499.2C587.4 506.6 593.4 510 600.2 510Z" fill="#001140"></path>
    <path d="M482.1 502.3H469.6V473.4C469.6 472.6 469.2 472.1 468.3 472.1H463.5C462.7 472.1 462.2 472.6 462.2 473.4V508C462.2 508.8 462.6 509.3 463.5 509.3H465.9H482C482.8 509.3 483.3 508.8 483.3 508V503.5C483.4 502.7 482.9 502.3 482.1 502.3Z" fill="#001140"></path>
    <path d="M437.5 510C448.2 510 456.7 501.6 456.7 490.7C456.7 479.8 448.1 471.4 437.5 471.4C426.8 471.4 418.3 479.8 418.3 490.7C418.3 501.6 426.8 510 437.5 510ZM437.5 502.9C430.8 502.9 425.6 497.9 425.6 490.7C425.6 483.6 430.8 478.5 437.5 478.5C444.2 478.5 449.4 483.5 449.4 490.7C449.4 497.8 444.2 502.9 437.5 502.9Z" fill="#001140"></path>
</g>
</svg>
